<?xml version="1.0" encoding="UTF-8" standalone="no"?>
<!DOCTYPE svg PUBLIC "-//W3C//DTD SVG 1.1//EN"
 "http://www.w3.org/Graphics/SVG/1.1/DTD/svg11.dtd">
<!-- Generated by graphviz version 2.38.0 (20140413.2041)
 -->
<!-- Title: g Pages: 1 -->
<svg width="283pt" height="277pt"
 viewBox="0.00 0.00 282.50 277.00" xmlns="http://www.w3.org/2000/svg" xmlns:xlink="http://www.w3.org/1999/xlink">
<g id="graph0" class="graph" transform="scale(1 1) rotate(0) translate(4 273)">
<title>g</title>
<polygon fill="white" stroke="none" points="-4,4 -4,-273 278.5,-273 278.5,4 -4,4"/>
<!-- cStatistic -->
<g id="node1" class="node"><title>cStatistic</title>
<polygon fill="none" stroke="black" points="193,-269 113,-269 113,-233 193,-233 193,-269"/>
<text text-anchor="middle" x="153" y="-247.3" font-family="Arial" font-size="14.00">cStatistic</text>
</g>
<!-- cStdDev -->
<g id="node2" class="node"><title>cStdDev</title>
<polygon fill="none" stroke="black" points="190,-196 116,-196 116,-160 190,-160 190,-196"/>
<text text-anchor="middle" x="153" y="-174.3" font-family="Arial" font-size="14.00">cStdDev</text>
</g>
<!-- cStatistic&#45;&gt;cStdDev -->
<g id="edge1" class="edge"><title>cStatistic&#45;&gt;cStdDev</title>
<path fill="none" stroke="black" d="M153,-222.753C153,-213.765 153,-204.029 153,-196.029"/>
<polygon fill="black" stroke="black" points="149.5,-222.813 153,-232.813 156.5,-222.813 149.5,-222.813"/>
</g>
<!-- cAbstractHistogram -->
<g id="node3" class="node"><title>cAbstractHistogram</title>
<polygon fill="none" stroke="black" points="229,-123 77,-123 77,-87 229,-87 229,-123"/>
<text text-anchor="middle" x="153" y="-101.3" font-family="Arial" font-size="14.00">cAbstractHistogram</text>
</g>
<!-- cStdDev&#45;&gt;cAbstractHistogram -->
<g id="edge2" class="edge"><title>cStdDev&#45;&gt;cAbstractHistogram</title>
<path fill="none" stroke="black" d="M153,-149.753C153,-140.765 153,-131.029 153,-123.029"/>
<polygon fill="black" stroke="black" points="149.5,-149.813 153,-159.813 156.5,-149.813 149.5,-149.813"/>
</g>
<!-- cHistogram -->
<g id="node4" class="node"><title>cHistogram</title>
<polygon fill="none" stroke="black" points="94,-36 -7.10543e-15,-36 -7.10543e-15,-0 94,-0 94,-36"/>
<text text-anchor="middle" x="47" y="-14.3" font-family="Arial" font-size="14.00">cHistogram</text>
</g>
<!-- cAbstractHistogram&#45;&gt;cHistogram -->
<g id="edge3" class="edge"><title>cAbstractHistogram&#45;&gt;cHistogram</title>
<path fill="none" stroke="black" d="M123.362,-80.234C105.903,-66.2337 84.2152,-48.8424 68.4188,-36.1754"/>
<polygon fill="black" stroke="black" points="121.558,-83.2736 131.549,-86.799 125.937,-77.8125 121.558,-83.2736"/>
</g>
<!-- cPSquare -->
<g id="node5" class="node"><title>cPSquare</title>
<polygon fill="none" stroke="black" points="193.5,-36 112.5,-36 112.5,-0 193.5,-0 193.5,-36"/>
<text text-anchor="middle" x="153" y="-14.3" font-family="Arial" font-size="14.00">cPSquare</text>
</g>
<!-- cAbstractHistogram&#45;&gt;cPSquare -->
<g id="edge4" class="edge"><title>cAbstractHistogram&#45;&gt;cPSquare</title>
<path fill="none" stroke="black" d="M153,-76.7339C153,-63.4194 153,-47.806 153,-36.1754"/>
<polygon fill="black" stroke="black" points="149.5,-76.7989 153,-86.799 156.5,-76.799 149.5,-76.7989"/>
<text text-anchor="middle" x="165.5" y="-57.8" font-family="Arial" font-size="14.00">(...)</text>
</g>
<!-- cKSplit -->
<g id="node6" class="node"><title>cKSplit</title>
<polygon fill="none" stroke="black" points="274.5,-36 211.5,-36 211.5,-0 274.5,-0 274.5,-36"/>
<text text-anchor="middle" x="243" y="-14.3" font-family="Arial" font-size="14.00">cKSplit</text>
</g>
<!-- cAbstractHistogram&#45;&gt;cKSplit -->
<g id="edge5" class="edge"><title>cAbstractHistogram&#45;&gt;cKSplit</title>
<path fill="none" stroke="black" d="M178.569,-79.8514C193.322,-65.9179 211.524,-48.7272 224.814,-36.1754"/>
<polygon fill="black" stroke="black" points="176.08,-77.3882 171.213,-86.799 180.886,-82.4773 176.08,-77.3882"/>
<text text-anchor="middle" x="216.5" y="-57.8" font-family="Arial" font-size="14.00">(...)</text>
</g>
</g>
</svg>
